<svg xmlns="http://www.w3.org/2000/svg" width="24" height="24" fill="none"><g clip-path="url(#a)"><mask id="b" width="22" height="24" x="1" y="0" maskUnits="userSpaceOnUse" style="mask-type:luminance"><path fill="#fff" d="M1.36.005h21.484V23.23H1.359z"/></mask><g mask="url(#b)"><path fill="#1A1A1A" d="M21.987 8.467a10.6 10.6 0 0 0-2.03-3.103l.871-.862.813.803a.386.386 0 0 0 .544 0c.15-.15.15-.39 0-.538L21.1 3.692l-1.081-1.071a.39.39 0 0 0-.547 0 .377.377 0 0 0 0 .537l.812.803-.871.866a10.7 10.7 0 0 0-3.135-2.013 10.6 10.6 0 0 0-3.794-.825V.761h1.61c.21 0 .384-.172.384-.381a.38.38 0 0 0-.384-.375h-3.988a.383.383 0 0 0-.384.381c0 .21.172.381.384.381h1.61V1.99c-1.316.047-2.591.325-3.797.825a10.7 10.7 0 0 0-3.132 2.013L3.92 3.96l.812-.803a.377.377 0 0 0 0-.537.385.385 0 0 0-.544 0L2.02 4.767a.377.377 0 0 0 0 .538.386.386 0 0 0 .543 0l.813-.803.872.862a10.5 10.5 0 0 0-2.031 3.103 10.4 10.4 0 0 0-.844 4.135c0 1.437.281 2.825.844 4.134a10.5 10.5 0 0 0 2.3 3.381 10.7 10.7 0 0 0 3.409 2.278c1.322.554 2.728.835 4.175.835a10.73 10.73 0 0 0 7.584-3.113 10.56 10.56 0 0 0 3.144-7.509 10.4 10.4 0 0 0-.84-4.14m-9.884 14.007c-5.49 0-9.962-4.428-9.962-9.866 0-5.44 4.465-9.872 9.962-9.872 5.494 0 9.963 4.428 9.963 9.866 0 5.44-4.47 9.872-9.963 9.872"/></g><path fill="#1A1A1A" d="M19.3 9.592a7.7 7.7 0 0 0-1.675-2.456 7.8 7.8 0 0 0-5.522-2.269 7.8 7.8 0 0 0-5.519 2.269A7.7 7.7 0 0 0 4.91 9.592a7.6 7.6 0 0 0-.615 3.01 7.653 7.653 0 0 0 1.528 4.6.39.39 0 0 0 .484.112q.016-.008.022-.016h.006q.013-.006.025-.012l1.091-.8a.38.38 0 0 0 .081-.531.386.386 0 0 0-.534-.078l-.775.568a6.85 6.85 0 0 1-1.15-3.456h.962c.21 0 .385-.172.385-.381a.385.385 0 0 0-.385-.381H5.07a6.9 6.9 0 0 1 1.79-4.275l.682.675a.386.386 0 0 0 .544 0c.15-.15.15-.391 0-.541l-.682-.672A7.05 7.05 0 0 1 11.72 5.64v.956a.383.383 0 0 0 .769 0V5.64a7.03 7.03 0 0 1 4.315 1.775l-.678.672a.381.381 0 0 0 .272.653.39.39 0 0 0 .272-.112l.678-.675a6.9 6.9 0 0 1 1.794 4.275h-.966a.383.383 0 0 0-.384.38c0 .21.171.382.384.382h.966a6.83 6.83 0 0 1-1.15 3.456l-.775-.568a.386.386 0 0 0-.535.078.38.38 0 0 0 .081.53l1.079.792c.006.003.006.003.009.009q.109.073.231.072a.38.38 0 0 0 .31-.153 7.64 7.64 0 0 0 1.528-4.597 7.8 7.8 0 0 0-.619-3.016"/><path fill="#1A1A1A" d="M14.478 14.72a.377.377 0 0 0 .228-.681l-1.156-.85q.114-.272.116-.587c0-.719-.504-1.328-1.178-1.494V8.352a.383.383 0 0 0-.77 0v2.756a1.546 1.546 0 0 0-1.177 1.494c0 .85.7 1.544 1.559 1.544.375 0 .716-.132.984-.35l1.16.85a.4.4 0 0 0 .234.075m-2.375-1.334a.79.79 0 0 1-.79-.784.79.79 0 0 1 .79-.784c.438 0 .794.353.794.784a.79.79 0 0 1-.794.784M11.784 17.893q-.28 0-.515.109a1 1 0 0 0-.34.244.84.84 0 0 0-.304-.25 1.1 1.1 0 0 0-.478-.103q-.245 0-.45.084a.9.9 0 0 0-.266.172.306.306 0 0 0-.297-.231.3.3 0 0 0-.303.3v1.762c0 .172.14.31.313.31a.31.31 0 0 0 .315-.31v-.894q0-.316.15-.478a.52.52 0 0 1 .403-.162c.154 0 .266.047.35.134q.123.14.122.425v.975c0 .172.141.31.316.31a.31.31 0 0 0 .316-.31v-.894c0-.209.05-.365.15-.478a.52.52 0 0 1 .403-.162c.153 0 .265.047.35.134q.122.14.122.425v.975c0 .172.14.31.315.31a.31.31 0 0 0 .313-.31v-1.04c0-.344-.088-.61-.266-.785-.175-.169-.419-.262-.719-.262M14.913 18.967a3 3 0 0 0-.46-.1 2 2 0 0 1-.397-.097c-.072-.028-.103-.075-.103-.137s.031-.11.097-.15a.7.7 0 0 1 .337-.066q.25 0 .46.081a.27.27 0 0 0 .344-.131.28.28 0 0 0 .009-.228.27.27 0 0 0-.169-.153c-.047-.012-.1-.028-.15-.04a2.2 2.2 0 0 0-.484-.057q-.478.001-.769.203a.65.65 0 0 0-.294.56q0 .264.144.415c.094.1.203.169.335.21.121.037.28.072.468.1.178.025.31.053.385.087.065.022.093.066.093.125 0 .05 0 .21-.437.21q-.203 0-.416-.063a1 1 0 0 1-.178-.06.3.3 0 0 0-.11-.021.27.27 0 0 0-.243.147v.006a.3.3 0 0 0-.012.219.27.27 0 0 0 .15.153q.095.041.215.069.272.075.563.075c.33 0 .593-.072.79-.2a.63.63 0 0 0 .3-.554c0-.172-.047-.312-.14-.409a.85.85 0 0 0-.328-.194"/></g><defs><clipPath id="a"><path fill="#fff" d="M0 .005h24v24H0z"/></clipPath></defs></svg>