<svg xmlns="http://www.w3.org/2000/svg" width="24" height="24" fill="none"><mask id="a" width="8" height="13" x="0" y="5" maskUnits="userSpaceOnUse" style="mask-type:luminance"><path fill="#fff" d="M.387 5.605H8v12H.387z"/></mask><g mask="url(#a)"><path fill="#1A1A1A" d="M6.275 17.458c-.344 0-.572-.115-.8-.344l-4.581-4.58a1.11 1.11 0 0 1 0-1.604l4.581-4.578a1.105 1.105 0 0 1 1.603 0 1.11 1.11 0 0 1 0 1.603L3.3 11.733l3.778 3.778a1.11 1.11 0 0 1 0 1.603c-.231.229-.46.344-.803.344"/></g><mask id="b" width="8" height="13" x="16" y="5" maskUnits="userSpaceOnUse" style="mask-type:luminance"><path fill="#fff" d="M16 5.605h7.613v12H16z"/></mask><g mask="url(#b)"><path fill="#1A1A1A" d="M17.725 17.458c-.344 0-.572-.115-.803-.344a1.11 1.11 0 0 1 0-1.603l3.778-3.778-3.778-3.778a1.11 1.11 0 0 1 0-1.603c.46-.46 1.147-.46 1.603 0l4.581 4.578a1.11 1.11 0 0 1 0 1.603l-4.581 4.581c-.228.229-.456.344-.8.344"/></g><mask id="c" width="8" height="17" x="8" y="3" maskUnits="userSpaceOnUse" style="mask-type:luminance"><path fill="#fff" d="M8 3.49h8v16.255H8z"/></mask><g mask="url(#c)"><path fill="#1A1A1A" d="M9.71 19.745c-.113 0-.229 0-.344-.112-.572-.228-.916-.803-.685-1.49L13.26 4.404c.229-.572.8-.916 1.488-.688.572.228.915.803.687 1.488l-4.578 13.74c-.231.46-.687.8-1.147.8"/></g></svg>