<svg xmlns="http://www.w3.org/2000/svg" width="24" height="24" fill="none"><mask id="a" width="24" height="1" x="0" y="20" maskUnits="userSpaceOnUse" style="mask-type:luminance"><path fill="#fff" d="M.388 20.005h23.225v.76H.387z"/></mask><g mask="url(#a)"><path fill="#1A1A1A" fill-rule="evenodd" d="M23.272 20.73H.728c-.19 0-.34-.15-.34-.344a.34.34 0 0 1 .34-.347h22.544c.19 0 .34.153.34.347s-.15.344-.34.344" clip-rule="evenodd"/></g><mask id="b" width="6" height="6" x="1" y="15" maskUnits="userSpaceOnUse" style="mask-type:luminance"><path fill="#fff" d="M1.6 15.205h4.8v5.56H1.6z"/></mask><g mask="url(#b)"><path fill="#1A1A1A" fill-rule="evenodd" d="M5.422 20.73c-.19 0-.34-.15-.34-.344v-3.734H3.068v3.763c0 .178-.15.343-.34.343a.35.35 0 0 1-.342-.343v-4.11c0-.194.15-.344.341-.344h2.694c.19 0 .34.15.34.344v4.081c-.015.194-.165.344-.34.344" clip-rule="evenodd"/></g><mask id="c" width="5" height="10" x="7" y="11" maskUnits="userSpaceOnUse" style="mask-type:luminance"><path fill="#fff" d="M7.2 11.205h4v9.56h-4z"/></mask><g mask="url(#c)"><path fill="#1A1A1A" fill-rule="evenodd" d="M10.7 20.73c-.19 0-.34-.15-.34-.343V12.49H8.346v7.897c0 .193-.15.343-.34.343s-.341-.15-.341-.343v-8.229c0-.18.15-.346.34-.346H10.7c.19 0 .34.165.34.346v8.257c0 .165-.15.315-.34.315" clip-rule="evenodd"/></g><mask id="d" width="5" height="9" x="12" y="12" maskUnits="userSpaceOnUse" style="mask-type:luminance"><path fill="#fff" d="M12.8 12.805h4v7.96h-4z"/></mask><g mask="url(#d)"><path fill="#1A1A1A" fill-rule="evenodd" d="M15.994 20.73c-.19 0-.34-.15-.34-.344V13.83h-2.029v6.556c0 .194-.15.344-.34.344a.336.336 0 0 1-.338-.344v-6.9c0-.194.147-.347.337-.347h2.71c.175 0 .34.153.34.347v6.9a.35.35 0 0 1-.34.344" clip-rule="evenodd"/></g><mask id="e" width="5" height="13" x="17" y="8" maskUnits="userSpaceOnUse" style="mask-type:luminance"><path fill="#fff" d="M17.6 8.005h4v12.76h-4z"/></mask><g mask="url(#e)"><path fill="#1A1A1A" fill-rule="evenodd" d="M21.272 20.73c-.19 0-.34-.15-.34-.344V9.417H18.89v10.997c0 .178-.15.344-.341.344a.345.345 0 0 1-.338-.344V9.102c0-.194.147-.347.338-.347h2.697a.34.34 0 0 1 .337.347v11.312c.029.166-.122.316-.312.316" clip-rule="evenodd"/></g><path fill="#1A1A1A" fill-rule="evenodd" d="M4.919 11.092a.35.35 0 0 1-.272-.137c-.11-.153-.069-.36.053-.485l3.606-2.834a.36.36 0 0 1 .475.053.38.38 0 0 1-.053.485l-3.606 2.834a.3.3 0 0 1-.203.084m8.706-2.418c-.012 0-.053 0-.066-.016l-3.225-.803c-.178-.04-.287-.235-.246-.413.028-.165.218-.278.396-.25l3.222.816c.166.028.288.222.247.4-.056.153-.19.266-.328.266m1.838-.444a.42.42 0 0 1-.272-.113.364.364 0 0 1 .04-.481l3.66-3.031a.354.354 0 0 1 .478.044c.11.137.093.359-.04.484L15.665 8.16c-.053.053-.135.069-.203.069" clip-rule="evenodd"/><path fill="#1A1A1A" fill-rule="evenodd" d="M4.06 12.82c-.76 0-1.388-.634-1.388-1.424 0-.788.628-1.425 1.387-1.425.779 0 1.404.637 1.404 1.425a1.41 1.41 0 0 1-1.404 1.425m0-2.155a.746.746 0 0 0-.735.746c0 .4.328.747.734.747a.724.724 0 0 0 .738-.747c.025-.415-.316-.746-.738-.746M9.369 8.673a1.41 1.41 0 0 1-1.403-1.412c0-.788.625-1.425 1.403-1.425.775 0 1.4.637 1.4 1.425 0 .775-.625 1.412-1.4 1.412m0-2.171c-.422 0-.738.33-.738.759 0 .416.34.747.738.747a.746.746 0 0 0 .734-.747.75.75 0 0 0-.734-.76M14.647 10.014a1.4 1.4 0 0 1-1.388-1.412c0-.788.613-1.422 1.388-1.422s1.4.634 1.4 1.422c0 .775-.625 1.412-1.4 1.412m0-2.16a.74.74 0 0 0-.735.748c0 .403.325.746.735.746a.73.73 0 0 0 .734-.746.73.73 0 0 0-.734-.747" clip-rule="evenodd"/><mask id="f" width="4" height="4" x="18" y="2" maskUnits="userSpaceOnUse" style="mask-type:luminance"><path fill="#fff" d="M18.4 2.764h3.2v2.84h-3.2z"/></mask><g mask="url(#f)"><path fill="#1A1A1A" fill-rule="evenodd" d="M19.925 5.601a1.387 1.387 0 0 1-1.387-1.409c0-.79.612-1.425 1.387-1.425s1.403.634 1.403 1.425a1.393 1.393 0 0 1-1.403 1.41m0-2.156a.74.74 0 0 0-.734.747.74.74 0 0 0 .734.747.74.74 0 0 0 .734-.747c.029-.403-.312-.747-.734-.747" clip-rule="evenodd"/></g></svg>