<svg xmlns="http://www.w3.org/2000/svg" width="56" height="56" fill="none"><rect width="56" height="56" fill="#F46177" rx="28"/><g filter="url(#a)"><path fill="url(#b)" fill-rule="evenodd" d="m27.784 12 1.894 1.54 2.41-.388.866 2.285 2.28.868-.386 2.413 1.536 1.898-1.536 1.897.386 2.414-2.28.868-.867 2.284-2.409-.387-1.894 1.54-1.894-1.54-2.409.387-.866-2.284-2.28-.868.386-2.414-1.537-1.897 1.537-1.898-.387-2.413 2.28-.868.867-2.285 2.41.387zm1.601 27.357h7.057c.567-.564 1.189-1.152 1.817-1.749 1.324-1.255 2.705-2.565 4.126-4.204 1.623-1.875 1.797-2.524 2.29-4.36.093-.345.196-.732.332-1.213l.843-2.972.01-.032c.451-1.323.487-2.198.3-2.701q-.087-.232-.22-.313a.38.38 0 0 0-.25-.052c-.22.023-.468.162-.693.41l-2.506 5.98a.7.7 0 0 1-.09.151q-.22.404-.606.778l-4.445 4.966a.655.655 0 0 1-.976-.874c.603-.672 5.273-5.264 5.035-6.293-.297-1.268-3.479 1.988-3.859 2.323l-.01.01c-1.864 1.768-2.666 2.188-4.129 2.953-.306.161-.64.335-1.056.561-.164.09-.326.2-.483.32q-.253.195-.48.39c-.773.652-1.18 1.181-1.411 1.765-.242.607-.329 1.346-.448 2.359q-.07.611-.113 1.216c-.016.197-.025.391-.035.581m-3.202 0h-7.06c-.567-.564-1.189-1.152-1.82-1.749-1.324-1.255-2.705-2.565-4.126-4.204-1.623-1.875-1.797-2.524-2.29-4.36-.093-.345-.196-.732-.332-1.213l-.844-2.972-.01-.032c-.45-1.323-.486-2.198-.299-2.701q.088-.232.22-.313a.38.38 0 0 1 .25-.052c.22.023.467.162.693.41l2.506 5.98a.7.7 0 0 0 .09.151q.22.404.606.778l4.445 4.966a.655.655 0 0 0 .976-.874c-.596-.675-5.267-5.267-5.028-6.296.296-1.268 3.478 1.988 3.858 2.323l.01.01c1.865 1.768 2.667 2.188 4.13 2.952.305.162.64.336 1.056.562.164.09.325.2.483.32q.251.194.48.39c.773.652 1.179 1.18 1.41 1.765.242.607.33 1.346.448 2.359.049.406.084.813.113 1.216q.023.3.035.584m-8.703.226a.66.66 0 0 0-.16.433v3.917c0 .365.296.658.656.658h8.884a.66.66 0 0 0 .657-.658V39.98a27.706 27.706 0 0 0-.17-2.568c-.13-1.107-.226-1.917-.536-2.695-.318-.797-.83-1.484-1.78-2.288a10 10 0 0 0-.539-.435 5.5 5.5 0 0 0-.647-.423q-.58-.314-1.076-.575c-1.353-.71-2.093-1.097-3.836-2.749l-.042-.035-1.681-1.488c-.85-.997-2.535-2.184-3.762-1.107-.654-1.558-1.298-4.956-3.437-5.166a1.68 1.68 0 0 0-1.095.258c-.313.204-.57.52-.731.956-.284.758-.277 1.936.277 3.565l.837 2.953c.123.426.229.835.329 1.197.547 2.049.74 2.775 2.567 4.879 1.446 1.668 2.863 3.01 4.22 4.298.35.342.705.681 1.065 1.026m1.256 1.09q.132.03.268 0h7.195v2.602h-7.565v-2.601zm19.352-1.09c.1.116.161.268.161.433v3.917a.656.656 0 0 1-.657.658h-8.88a.66.66 0 0 1-.657-.658V39.98c0-.022 0-.048.003-.07q.014-.638.052-1.22.043-.645.116-1.278c.128-1.107.225-1.917.534-2.695.319-.797.831-1.484 1.781-2.288.174-.148.351-.297.538-.435.197-.149.41-.29.648-.423q.58-.314 1.076-.575c1.352-.71 2.093-1.097 3.836-2.749l.041-.035 1.682-1.488c.85-.997 2.535-2.184 3.762-1.107.319-.764 1.42-3.759 1.8-4.217.47-.565 1.066-.894 1.637-.952.39-.039.766.045 1.095.258.312.203.57.52.73.955.284.758.278 1.936-.276 3.566l-.837 2.953c-.123.425-.23.835-.329 1.197-.548 2.049-.74 2.775-2.567 4.879-1.446 1.668-2.86 3.01-4.22 4.298-.354.345-.708.684-1.069 1.03m-1.256 1.09a.6.6 0 0 1-.267 0h-7.196v2.602h7.566v-2.601zm-9.048-23.13.886 2.17 2.335.174-1.784 1.513.557 2.278-1.99-1.236-1.991 1.236.557-2.275-1.79-1.513 2.334-.175.886-2.168zm0-1.797a4.863 4.863 0 0 1 4.857 4.867 4.863 4.863 0 0 1-4.857 4.866 4.863 4.863 0 0 1-4.857-4.866 4.863 4.863 0 0 1 4.857-4.867" clip-rule="evenodd"/></g><defs><linearGradient id="b" x1="27.786" x2="27.786" y1="12" y2="44.591" gradientUnits="userSpaceOnUse"><stop stop-color="#fff"/><stop offset="1" stop-color="#FEE6DF"/></linearGradient><filter id="a" width="53.572" height="46.591" x="1" y="5" color-interpolation-filters="sRGB" filterUnits="userSpaceOnUse"><feFlood flood-opacity="0" result="BackgroundImageFix"/><feColorMatrix in="SourceAlpha" result="hardAlpha" values="0 0 0 0 0 0 0 0 0 0 0 0 0 0 0 0 0 0 127 0"/><feOffset/><feGaussianBlur stdDeviation="3.5"/><feComposite in2="hardAlpha" operator="out"/><feColorMatrix values="0 0 0 0 0.458824 0 0 0 0 0.0705882 0 0 0 0 0.27451 0 0 0 0.64 0"/><feBlend in2="BackgroundImageFix" result="effect1_dropShadow_214_168"/><feBlend in="SourceGraphic" in2="effect1_dropShadow_214_168" result="shape"/></filter></defs></svg>