<svg xmlns="http://www.w3.org/2000/svg" width="58" height="58" fill="none"><rect width="57" height="57" x=".5" y=".5" fill="#F46177" stroke="#fff" rx="28.5"/><g filter="url(#a)"><path fill="#09121F" d="M20.216 19.138A12.45 12.45 0 0 1 28.5 16C35.404 16 41 21.596 41 28.5a12.44 12.44 0 0 1-2.241 7.144L35.375 28.5H38.5a10 10 0 0 0-17.157-6.984l-1.125-2.377zm16.568 18.724A12.45 12.45 0 0 1 28.5 41C21.596 41 16 35.404 16 28.5c0-2.656.829-5.119 2.241-7.144l3.384 7.144H18.5a10 10 0 0 0 17.158 6.984l1.124 2.377zM24.125 31H31a.625.625 0 0 0 0-1.25h-5a3.125 3.125 0 1 1 0-6.25h1.25v-1.25h2.5v1.25h3.125V26H26a.625.625 0 0 0 0 1.25h5a3.125 3.125 0 1 1 0 6.25h-1.25v1.25h-2.5V33.5h-3.125z"/><path fill="url(#b)" d="M20.216 19.138A12.45 12.45 0 0 1 28.5 16C35.404 16 41 21.596 41 28.5a12.44 12.44 0 0 1-2.241 7.144L35.375 28.5H38.5a10 10 0 0 0-17.157-6.984l-1.125-2.377zm16.568 18.724A12.45 12.45 0 0 1 28.5 41C21.596 41 16 35.404 16 28.5c0-2.656.829-5.119 2.241-7.144l3.384 7.144H18.5a10 10 0 0 0 17.158 6.984l1.124 2.377zM24.125 31H31a.625.625 0 0 0 0-1.25h-5a3.125 3.125 0 1 1 0-6.25h1.25v-1.25h2.5v1.25h3.125V26H26a.625.625 0 0 0 0 1.25h5a3.125 3.125 0 1 1 0 6.25h-1.25v1.25h-2.5V33.5h-3.125z"/></g><defs><linearGradient id="b" x1="28.5" x2="28.5" y1="16" y2="45.107" gradientUnits="userSpaceOnUse"><stop stop-color="#fff"/><stop offset="1" stop-color="#FEE6DF"/></linearGradient><filter id="a" width="57" height="57" x="0" y="0" color-interpolation-filters="sRGB" filterUnits="userSpaceOnUse"><feFlood flood-opacity="0" result="BackgroundImageFix"/><feColorMatrix in="SourceAlpha" result="hardAlpha" values="0 0 0 0 0 0 0 0 0 0 0 0 0 0 0 0 0 0 127 0"/><feOffset/><feGaussianBlur stdDeviation="8"/><feComposite in2="hardAlpha" operator="out"/><feColorMatrix values="0 0 0 0 0.458824 0 0 0 0 0.0705882 0 0 0 0 0.27451 0 0 0 0.64 0"/><feBlend in2="BackgroundImageFix" result="effect1_dropShadow_104_84554"/><feBlend in="SourceGraphic" in2="effect1_dropShadow_104_84554" result="shape"/></filter></defs></svg>