<svg xmlns="http://www.w3.org/2000/svg" width="26" height="24" fill="none"><g clip-path="url(#a)"><path fill="#000" d="M7.329 4.335h11.343a2.84 2.84 0 0 1 2.009.838l.001-.002a2.84 2.84 0 0 1 .837 2.011v9.635a2.84 2.84 0 0 1-.837 2.01 2.84 2.84 0 0 1-2.01.837H7.329c-.782 0-1.495-.32-2.011-.837a2.84 2.84 0 0 1-.837-2.01V7.182c0-.78.32-1.492.836-2.009l.004-.004a2.84 2.84 0 0 1 2.008-.834m3.045 10.376H8.353l1.553-5.99h2.961l1.553 5.99h-2.022l-.155-.949h-1.713zm.795-4.15-.295 1.677h1.013l-.285-1.677zm3.758 4.15v-5.99h1.917v5.99zm8.194-1.818v1.562c0 .161.13.292.292.292h2.295c.16 0 .292-.13.292-.292v-1.562a.293.293 0 0 0-.292-.292h-2.295a.293.293 0 0 0-.292.292m0-3.587v1.562c0 .16.13.292.292.292h2.295c.16 0 .292-.131.292-.292V9.306a.293.293 0 0 0-.292-.292h-2.295a.293.293 0 0 0-.292.292m0 7.174v1.563c0 .16.13.292.292.292h2.295c.16 0 .292-.132.292-.293V16.48a.293.293 0 0 0-.292-.292h-2.295a.293.293 0 0 0-.292.292m0-10.761V7.28c0 .16.13.292.292.292h2.295c.16 0 .292-.131.292-.292V5.719a.293.293 0 0 0-.292-.292h-2.295a.293.293 0 0 0-.292.292M2.879 12.893v1.562c0 .161-.13.292-.292.292H.292A.293.293 0 0 1 0 14.455v-1.562c0-.16.131-.292.292-.292h2.295c.161 0 .292.131.292.292m0-3.587v1.562c0 .16-.13.292-.292.292H.292A.293.293 0 0 1 0 10.868V9.306c0-.16.131-.292.292-.292h2.295c.161 0 .292.131.292.292m0 7.174v1.563c0 .16-.13.292-.292.292H.292A.293.293 0 0 1 0 18.042V16.48c0-.16.131-.292.292-.292h2.295c.161 0 .292.132.292.292m0-10.761V7.28c0 .16-.13.292-.292.292H.292A.293.293 0 0 1 0 7.281V5.719c0-.16.131-.292.292-.292h2.295c.161 0 .292.131.292.292M17.6 21.115h1.563c.16 0 .292.131.292.292v2.295c0 .16-.131.292-.292.292H17.6a.293.293 0 0 1-.292-.292v-2.295c0-.161.13-.292.292-.292m-3.587 0h1.563c.16 0 .292.131.292.292v2.295c0 .16-.132.292-.292.292h-1.563a.293.293 0 0 1-.292-.292v-2.295c0-.161.132-.292.292-.292m-3.587 0h1.562c.161 0 .293.131.293.292v2.295c0 .16-.132.292-.293.292h-1.562a.293.293 0 0 1-.292-.292v-2.295c0-.161.132-.292.292-.292m-3.587 0H8.4c.161 0 .292.131.292.292v2.295c0 .16-.131.292-.292.292H6.838a.293.293 0 0 1-.292-.292v-2.295c0-.161.131-.292.292-.292M17.6.005h1.562c.16 0 .292.131.292.292v2.295c0 .161-.131.292-.292.292H17.6a.293.293 0 0 1-.292-.292V.297c0-.16.13-.292.292-.292m-3.588 0h1.563c.16 0 .292.131.292.292v2.295c0 .161-.132.292-.292.292h-1.563a.293.293 0 0 1-.292-.292V.297c0-.16.132-.292.292-.292m-3.587 0h1.562c.161 0 .293.131.293.292v2.295c0 .161-.132.292-.293.292h-1.562a.293.293 0 0 1-.292-.292V.297c0-.16.132-.292.292-.292m-3.587 0H8.4c.161 0 .292.131.292.292v2.295c0 .161-.131.292-.292.292H6.838a.293.293 0 0 1-.292-.292V.297c0-.16.131-.292.292-.292m11.834 5.642H7.329a1.53 1.53 0 0 0-1.085.449l-.002.002a1.53 1.53 0 0 0-.45 1.084v9.635c0 .42.174.805.453 1.083.279.28.663.453 1.084.453h11.343c.42 0 .803-.174 1.082-.453.28-.28.453-.663.453-1.083V7.182c0-.42-.173-.805-.452-1.084v-.002a1.53 1.53 0 0 0-1.083-.45"/></g><defs><clipPath id="a"><path fill="#fff" d="M0 .005h26v23.989H0z"/></clipPath></defs></svg>