<svg xmlns="http://www.w3.org/2000/svg" width="73" height="73" fill="none"><rect width="71" height="71" x="1.375" y="1.24" fill="url(#a)" stroke="#E4E7EC" rx="35.5"/><rect width="50.4" height="50.4" x="11.672" y="11.54" fill="#F46177" rx="25.2"/><g filter="url(#b)"><path fill="#1A1A1A" d="m47.278 40.328-5.123-2.196a1.75 1.75 0 0 0-1.66.153l-2.739 1.826a8.37 8.37 0 0 1-3.85-3.834l1.82-2.78a1.75 1.75 0 0 0 .144-1.648l-2.198-5.127a1.75 1.75 0 0 0-1.821-1.048A6.13 6.13 0 0 0 26.5 31.75c0 8.685 7.065 15.75 15.75 15.75a6.13 6.13 0 0 0 6.076-5.35 1.75 1.75 0 0 0-1.048-1.822"/><path fill="url(#c)" d="m47.278 40.328-5.123-2.196a1.75 1.75 0 0 0-1.66.153l-2.739 1.826a8.37 8.37 0 0 1-3.85-3.834l1.82-2.78a1.75 1.75 0 0 0 .144-1.648l-2.198-5.127a1.75 1.75 0 0 0-1.821-1.048A6.13 6.13 0 0 0 26.5 31.75c0 8.685 7.065 15.75 15.75 15.75a6.13 6.13 0 0 0 6.076-5.35 1.75 1.75 0 0 0-1.048-1.822"/></g><defs><linearGradient id="a" x1="36.875" x2="36.875" y1=".74" y2="72.74" gradientUnits="userSpaceOnUse"><stop stop-color="#fff"/><stop offset="1" stop-color="#fff" stop-opacity=".8"/></linearGradient><linearGradient id="c" x1="37.419" x2="37.419" y1="25.661" y2="51.088" gradientUnits="userSpaceOnUse"><stop stop-color="#fff"/><stop offset="1" stop-color="#FEE6DF"/></linearGradient><filter id="b" width="53.839" height="53.839" x="10.5" y="15.661" color-interpolation-filters="sRGB" filterUnits="userSpaceOnUse"><feFlood flood-opacity="0" result="BackgroundImageFix"/><feColorMatrix in="SourceAlpha" result="hardAlpha" values="0 0 0 0 0 0 0 0 0 0 0 0 0 0 0 0 0 0 127 0"/><feOffset dy="6"/><feGaussianBlur stdDeviation="8"/><feComposite in2="hardAlpha" operator="out"/><feColorMatrix values="0 0 0 0 0.458824 0 0 0 0 0.0705882 0 0 0 0 0.27451 0 0 0 0.64 0"/><feBlend in2="BackgroundImageFix" result="effect1_dropShadow_104_85293"/><feBlend in="SourceGraphic" in2="effect1_dropShadow_104_85293" result="shape"/></filter></defs></svg>