<svg xmlns="http://www.w3.org/2000/svg" width="24" height="24" fill="none"><g clip-path="url(#a)"><mask id="b" width="20" height="23" x="2" y="0" maskUnits="userSpaceOnUse" style="mask-type:luminance"><path fill="#fff" d="M2.281.849h19.16v21.484H2.28z"/></mask><g mask="url(#b)"><path fill="#1A1A1A" d="M19.39 9.786c-.696 2.612-1.621 4.772-2.753 6.419-2.256 3.29-4.062 4.506-4.778 4.89-.712-.384-2.518-1.6-4.775-4.89-1.13-1.647-2.056-3.807-2.753-6.42a34 34 0 0 1-.862-4.424c3.478-3.122 8.044-3.34 8.39-3.353.166.006 1.37.065 2.947.49 1.488.404 3.619 1.222 5.447 2.863-.1.81-.347 2.487-.862 4.425m1.8-5.125C17.21.948 11.86.85 11.86.85S6.511.949 2.53 4.662a.72.72 0 0 0-.225.61c.172 1.509 1.01 7.468 3.838 11.593 2.59 3.775 4.672 5.022 5.419 5.372.19.09.406.09.596 0 .747-.35 2.829-1.597 5.42-5.372C20.405 12.74 21.243 6.78 21.415 5.27a.72.72 0 0 0-.225-.61"/></g><path fill="#1A1A1A" d="M12.419 12.72a.184.184 0 0 1-.178.223h-.76a.184.184 0 0 1-.178-.222l.29-1.3c-.2-.1-.34-.31-.34-.553a.608.608 0 0 1 1.213-.044.62.62 0 0 1-.338.597zm1.912-4.49h-4.94a.63.63 0 0 0-.629.634v4.497c0 .353.282.638.629.638h4.94a.63.63 0 0 0 .628-.638V8.864a.63.63 0 0 0-.628-.634M10.35 7.33a1.52 1.52 0 0 1 1.51-1.528c.834 0 1.512.684 1.512 1.528v.631h.697v-.63c0-1.235-.99-2.235-2.21-2.235-1.215 0-2.206 1-2.206 2.234v.631h.697zM9.828 14.527h4.066c.16 0 .29-.113.322-.263h-4.71c.031.15.163.263.322.263"/></g><defs><clipPath id="a"><path fill="#fff" d="M0 .005h24v24H0z"/></clipPath></defs></svg>