<svg xmlns="http://www.w3.org/2000/svg" width="24" height="24" fill="none"><g clip-path="url(#a)"><mask id="b" width="22" height="24" x="1" y="0" maskUnits="userSpaceOnUse" style="mask-type:luminance"><path fill="#fff" d="M1.228.005h21.484V23.23H1.228z"/></mask><g mask="url(#b)"><path fill="#1A1A1A" d="M19.778 19.193a2.335 2.335 0 0 1-1.647-3.985 2.3 2.3 0 0 1 1.644-.681 2.333 2.333 0 0 1 .003 4.666m-9.684-4.966a3.54 3.54 0 0 1-3.532-3.54 3.54 3.54 0 0 1 3.532-3.541 3.54 3.54 0 0 1 3.531 3.54 3.54 3.54 0 0 1-3.531 3.54M8.878 1.839c0-.672.544-1.218 1.216-1.218a1.22 1.22 0 0 1 0 2.437A1.22 1.22 0 0 1 8.878 1.84m-2.05 18.372a2.403 2.403 0 0 1-2.397 2.403 2.403 2.403 0 0 1 0-4.806 2.403 2.403 0 0 1 2.397 2.403m-3.862-9.903a1.13 1.13 0 0 1 0-2.26 1.13 1.13 0 0 1 0 2.26m16.809 3.61c-.784 0-1.522.306-2.075.859-.081.081-.144.175-.212.26l-3.763-2.398c.313-.584.51-1.243.51-1.953 0-2.184-1.7-3.96-3.838-4.119v-2.93A1.827 1.827 0 0 0 10.094.01a1.825 1.825 0 0 0-.303 3.625v2.931a4.13 4.13 0 0 0-3.657 2.97l-1.378-.291c-.022-.007-.04 0-.06 0 0-.022.007-.044.007-.07 0-.959-.781-1.74-1.737-1.74a1.742 1.742 0 0 0 0 3.485c.73 0 1.356-.46 1.609-1.104.019.01.034.02.056.025l1.378.291c-.025.185-.056.366-.056.553 0 1.403.703 2.64 1.769 3.394l-2.025 3.41a3 3 0 0 0-1.266-.291 3.01 3.01 0 0 0-3.006 3.012 3.01 3.01 0 0 0 3.006 3.013 3.013 3.013 0 0 0 3.006-3.013c0-.987-.484-1.86-1.218-2.41l2.031-3.418a4.1 4.1 0 0 0 1.844.453 4.11 4.11 0 0 0 3.306-1.681l3.76 2.397c-.2.403-.32.844-.32 1.31a2.943 2.943 0 0 0 2.938 2.943 2.943 2.943 0 0 0 2.935-2.944 2.943 2.943 0 0 0-2.938-2.943M16.809.686h-3.418a.304.304 0 0 0-.303.306c0 .17.134.304.303.304h3.418a.304.304 0 1 0 0-.61M14.744 2.45H13.39a.304.304 0 0 0 0 .61h1.353a.304.304 0 0 0 0-.61m-2.525 16.615H8.797a.304.304 0 0 0 0 .61h3.422a.304.304 0 0 0 0-.61m-2.069 1.763H8.797a.304.304 0 0 0 0 .61h1.353a.307.307 0 0 0 .306-.307.306.306 0 0 0-.306-.303"/></g></g><defs><clipPath id="a"><path fill="#fff" d="M0 .005h24v24H0z"/></clipPath></defs></svg>