<svg xmlns="http://www.w3.org/2000/svg" width="72" height="73" fill="none"><rect width="71" height="71" x=".5" y="1" fill="url(#a)" stroke="#E4E7EC" rx="35.5"/><rect width="50.4" height="50.4" x="10.894" y="11.76" fill="#F46177" rx="25.2"/><g filter="url(#b)"><mask id="c" width="25" height="25" x="23" y="24" maskUnits="userSpaceOnUse" style="mask-type:luminance"><path fill="#fff" d="M48 24H23v25h25z"/></mask><g mask="url(#c)"><path fill="url(#d)" d="M46.486 35.084c0-2.827-2.3-5.127-5.127-5.127h-5.127V28.26a2.19 2.19 0 0 0 1.465-2.063A2.2 2.2 0 0 0 35.5 24a2.2 2.2 0 0 0-2.197 2.197c0 .954.614 1.76 1.465 2.063v1.697H29.64a5.133 5.133 0 0 0-5.127 5.127v2.197H23v1.465h1.514v2.197c0 2.827 2.3 5.127 5.127 5.127h11.718c2.827 0 5.127-2.3 5.127-5.127v-2.197H48v-1.465h-1.514zm-2.93 3.662h-5.579l-.28-.56-2.197 4.395-2.93-5.86-1.012 2.025h-4.115v-1.465h3.21l1.917-3.835 2.93 5.86 2.197-4.395 1.185 2.37h4.675zm-10.253 8.79h4.394V49h-4.394z"/></g></g><defs><linearGradient id="a" x1="35.999" x2="35.999" y1=".5" y2="72.5" gradientUnits="userSpaceOnUse"><stop stop-color="#fff"/><stop offset="1" stop-color="#fff" stop-opacity=".8"/></linearGradient><linearGradient id="d" x1="35.5" x2="35.5" y1="24" y2="49" gradientUnits="userSpaceOnUse"><stop stop-color="#fff"/><stop offset="1" stop-color="#FEE6DF"/></linearGradient><filter id="b" width="57" height="57" x="7" y="14" color-interpolation-filters="sRGB" filterUnits="userSpaceOnUse"><feFlood flood-opacity="0" result="BackgroundImageFix"/><feColorMatrix in="SourceAlpha" result="hardAlpha" values="0 0 0 0 0 0 0 0 0 0 0 0 0 0 0 0 0 0 127 0"/><feOffset dy="6"/><feGaussianBlur stdDeviation="8"/><feComposite in2="hardAlpha" operator="out"/><feColorMatrix values="0 0 0 0 0.458824 0 0 0 0 0.0705882 0 0 0 0 0.27451 0 0 0 0.64 0"/><feBlend in2="BackgroundImageFix" result="effect1_dropShadow_104_85303"/><feBlend in="SourceGraphic" in2="effect1_dropShadow_104_85303" result="shape"/></filter></defs></svg>