<svg xmlns="http://www.w3.org/2000/svg" width="58" height="58" fill="none"><rect width="57" height="57" x=".5" y=".5" fill="#F46177" stroke="#fff" rx="28.5"/><g filter="url(#a)"><mask id="b" width="23" height="25" x="18" y="16" maskUnits="userSpaceOnUse" style="mask-type:luminance"><path fill="#fff" d="M18 16h22.366v25H18z"/></mask><g mask="url(#b)"><path fill="url(#c)" d="M39.877 20.21h-1.53v-1.547a.494.494 0 0 0-.492-.496h-1.529v-1.664a.49.49 0 0 0-.489-.496h-11.34q-.006.002-.01.004h-.011q-.006 0-.01.003h-.008q-.016.002-.028.004.001.004-.004.003-.006-.001-.014.004h-.004a.3.3 0 0 0-.046.018h-.003q-.005 0-.014.007h-.004l-.039.021q-.003.002-.007.004-.005.003-.01.007-.006.002-.011.003-.001.004-.007.007l-.014.01q-.004.006-.007.005l-.011.01c-.004 0-.004.004-.007.004l-.01.01c0 .004-.004.004-.004.004q-.002.004-.004.003l-6.054 5.665a.1.1 0 0 1-.028.029q.001.003-.004.007l-.01.01c0 .004-.004.004-.004.007l-.01.011q.001.003-.004.007l-.011.014q-.005.007-.004.007-.006.006-.007.01-.003.007-.007.011-.002.007-.003.008-.004.005-.007.01.001.004-.004.007a.2.2 0 0 0-.018.046h-.003a1 1 0 0 0-.018.068l-.003.003q.001.01-.004.014v.007c0 .008-.004.015-.004.022v.021c-.003.007-.003.01-.003.018v18.358c0 .272.22.495.489.495H29.58c.27 0 .489-.223.489-.495 0-.277-.22-.5-.489-.5h-10.6V22.664h5.562c.273 0 .492-.22.492-.496v-5.17h10.31v11.118c0 .273.22.496.492.496.27 0 .489-.223.489-.496v-8.958h1.04v9.996c0 .272.22.495.49.495a.494.494 0 0 0 .492-.495V21.2h1.037v10.112c0 .276.22.5.492.5.27 0 .489-.224.489-.5V20.706a.493.493 0 0 0-.489-.496m-15.823 1.462h-4.312l4.312-4.036z"/></g><mask id="d" width="14" height="13" x="27" y="28" maskUnits="userSpaceOnUse" style="mask-type:luminance"><path fill="#fff" d="M27.344 28.934h12.689V41h-12.69z"/></mask><g mask="url(#d)"><path fill="url(#e)" d="M38.295 30.793a5.827 5.827 0 0 0-4.178-1.749 5.8 5.8 0 0 0-2.298.467 5.9 5.9 0 0 0-1.877 1.282 5.97 5.97 0 0 0-1.731 4.223 6 6 0 0 0 1.731 4.228 5.9 5.9 0 0 0 1.877 1.278c.73.312 1.501.47 2.298.47a5.8 5.8 0 0 0 2.301-.47c.701-.3 1.335-.73 1.877-1.278a5.994 5.994 0 0 0 1.728-4.227 6 6 0 0 0-.464-2.327 6 6 0 0 0-1.264-1.897m.36 6.164a4.9 4.9 0 0 1-1.054 1.582 4.883 4.883 0 0 1-5.4 1.07 4.9 4.9 0 0 1-1.565-1.07 4.9 4.9 0 0 1-1.055-1.582 5 5 0 0 1-.39-1.94c0-.673.132-1.325.39-1.937a5 5 0 0 1 1.055-1.586 4.9 4.9 0 0 1 1.565-1.066 4.8 4.8 0 0 1 1.916-.393c.665 0 1.31.13 1.919.393a4.95 4.95 0 0 1 2.62 2.652 4.95 4.95 0 0 1 .386 1.936c0 .673-.128 1.328-.386 1.94"/></g><path fill="url(#f)" d="M26.936 20.348h5.878c.269 0 .488-.223.488-.496a.49.49 0 0 0-.488-.496h-5.878c-.269 0-.488.22-.488.496 0 .273.22.496.488.496"/><path fill="url(#g)" d="M26.936 23.18h5.878c.269 0 .488-.223.488-.495a.49.49 0 0 0-.488-.496h-5.878c-.269 0-.488.22-.488.496 0 .272.22.495.488.495"/><path fill="url(#h)" d="M21.123 25.517c0 .273.223.496.492.496h11.199c.269 0 .488-.223.488-.496a.493.493 0 0 0-.488-.495h-11.2a.496.496 0 0 0-.491.495"/><path fill="url(#i)" d="M21.615 28.845h9.871c.27 0 .489-.22.489-.495a.493.493 0 0 0-.489-.496h-9.871a.496.496 0 0 0 0 .991"/><path fill="url(#j)" d="M28.53 31.182a.494.494 0 0 0-.492-.495h-6.423a.496.496 0 0 0 0 .994h6.423a.495.495 0 0 0 .492-.499"/><path fill="url(#k)" d="M21.615 34.514h5.392c.27 0 .489-.224.489-.5a.493.493 0 0 0-.489-.495h-5.392a.497.497 0 0 0 0 .995"/><path fill="url(#l)" d="M21.615 37.346h5.598a.494.494 0 0 0 .492-.496c0-.276-.22-.499-.492-.499h-5.598a.497.497 0 0 0 0 .995"/><path fill="url(#m)" d="m32.913 36.302-1.583-1.6-.97.98 2.553 2.585 4.759-4.815-.97-.985z"/></g><defs><linearGradient id="c" x1="29.183" x2="29.183" y1="16.007" y2="40.993" gradientUnits="userSpaceOnUse"><stop stop-color="#fff"/><stop offset="1" stop-color="#FEE6DF"/></linearGradient><linearGradient id="e" x1="34.117" x2="34.117" y1="29.044" y2="40.993" gradientUnits="userSpaceOnUse"><stop stop-color="#fff"/><stop offset="1" stop-color="#FEE6DF"/></linearGradient><linearGradient id="f" x1="29.875" x2="29.875" y1="19.356" y2="20.348" gradientUnits="userSpaceOnUse"><stop stop-color="#fff"/><stop offset="1" stop-color="#FEE6DF"/></linearGradient><linearGradient id="g" x1="29.875" x2="29.875" y1="22.189" y2="23.18" gradientUnits="userSpaceOnUse"><stop stop-color="#fff"/><stop offset="1" stop-color="#FEE6DF"/></linearGradient><linearGradient id="h" x1="27.213" x2="27.213" y1="25.021" y2="26.013" gradientUnits="userSpaceOnUse"><stop stop-color="#fff"/><stop offset="1" stop-color="#FEE6DF"/></linearGradient><linearGradient id="i" x1="26.549" x2="26.549" y1="27.854" y2="28.845" gradientUnits="userSpaceOnUse"><stop stop-color="#fff"/><stop offset="1" stop-color="#FEE6DF"/></linearGradient><linearGradient id="j" x1="24.826" x2="24.826" y1="30.686" y2="31.681" gradientUnits="userSpaceOnUse"><stop stop-color="#fff"/><stop offset="1" stop-color="#FEE6DF"/></linearGradient><linearGradient id="k" x1="24.309" x2="24.309" y1="33.519" y2="34.514" gradientUnits="userSpaceOnUse"><stop stop-color="#fff"/><stop offset="1" stop-color="#FEE6DF"/></linearGradient><linearGradient id="l" x1="24.414" x2="24.414" y1="36.351" y2="37.346" gradientUnits="userSpaceOnUse"><stop stop-color="#fff"/><stop offset="1" stop-color="#FEE6DF"/></linearGradient><linearGradient id="m" x1="34.016" x2="34.016" y1="32.467" y2="38.267" gradientUnits="userSpaceOnUse"><stop stop-color="#fff"/><stop offset="1" stop-color="#FEE6DF"/></linearGradient><filter id="a" width="54.366" height="56.986" x="2" y=".007" color-interpolation-filters="sRGB" filterUnits="userSpaceOnUse"><feFlood flood-opacity="0" result="BackgroundImageFix"/><feColorMatrix in="SourceAlpha" result="hardAlpha" values="0 0 0 0 0 0 0 0 0 0 0 0 0 0 0 0 0 0 127 0"/><feOffset/><feGaussianBlur stdDeviation="8"/><feComposite in2="hardAlpha" operator="out"/><feColorMatrix values="0 0 0 0 0.458824 0 0 0 0 0.0705882 0 0 0 0 0.27451 0 0 0 0.64 0"/><feBlend in2="BackgroundImageFix" result="effect1_dropShadow_110_209"/><feBlend in="SourceGraphic" in2="effect1_dropShadow_110_209" result="shape"/></filter></defs></svg>