<svg xmlns="http://www.w3.org/2000/svg" width="24" height="24" fill="none"><g clip-path="url(#a)"><mask id="b" width="24" height="23" x="0" y="0" maskUnits="userSpaceOnUse" style="mask-type:luminance"><path fill="#fff" d="M.8.755h22.619v21.484H.8z"/></mask><g mask="url(#b)"><path fill="#1A1A1A" fill-rule="evenodd" d="m4.387 7.667-.759-2.075V5.59a.34.34 0 0 0-.469-.216h-.003l-2.115.744a.333.333 0 0 0-.207.428c.063.172.26.263.435.2l1.122-.393a.05.05 0 0 1 .05.012q.019.025.006.05a10.56 10.56 0 0 0-1.303 5.081c0 2.966 1.225 5.653 3.21 7.597a11.02 11.02 0 0 0 7.74 3.144 11.024 11.024 0 0 0 6.125-1.834.33.33 0 0 0 .09-.466.343.343 0 0 0-.472-.09 10.36 10.36 0 0 1-5.743 1.721c-2.835 0-5.4-1.128-7.26-2.95-1.856-1.822-3.006-4.34-3.006-7.122a9.87 9.87 0 0 1 1.338-4.972.05.05 0 0 1 .043-.025.05.05 0 0 1 .038.032l.5 1.362a.34.34 0 0 0 .434.203.333.333 0 0 0 .206-.428m1.491-4.61a.334.334 0 0 1 .094-.465A11 11 0 0 1 8.89 1.223a11.2 11.2 0 0 1 3.203-.465c3.025 0 5.762 1.2 7.743 3.144 1.982 1.943 3.207 4.628 3.207 7.593 0 1.09-.166 2.147-.475 3.144q-.321 1.018-.825 1.938a.05.05 0 0 0 .006.053.05.05 0 0 0 .05.012l1.119-.394a.346.346 0 0 1 .437.2.336.336 0 0 1-.206.429l-2.119.743h-.003a.34.34 0 0 1-.328-.028.33.33 0 0 1-.137-.187q.001-.002-.004-.003l-.756-2.075a.33.33 0 0 1 .206-.429.34.34 0 0 1 .435.204l.497 1.362a.05.05 0 0 0 .04.028q.03.003.044-.022a9.87 9.87 0 0 0 1.338-4.975c0-2.778-1.15-5.297-3.01-7.118a10.33 10.33 0 0 0-7.26-2.95c-1.046 0-2.056.153-3.002.437-.982.294-1.904.728-2.738 1.284a.35.35 0 0 1-.475-.09m9.61 8.379c0 1.897-1.57 3.437-3.507 3.437s-3.506-1.54-3.506-3.437c0-1.9 1.569-3.44 3.506-3.44 1.038 0 1.972.443 2.613 1.146a.05.05 0 0 0 .034.016.05.05 0 0 0 .034-.016l1.629-1.734a.344.344 0 0 1 .48-.019.33.33 0 0 1 .023.472l-.607.644v.003l-4.215 4.49a.05.05 0 0 1-.034.016.04.04 0 0 1-.032-.016l-1.262-1.303a.35.35 0 0 0-.485-.012.336.336 0 0 0-.012.475l1.55 1.597a.343.343 0 0 0 .481.01q.008-.007.016-.013v-.004l3.081-3.28q.019-.02.044-.016a.06.06 0 0 1 .034.03q.133.457.135.954M5.744 6.302c0-.022.015-.041.037-.044q.958-.14 1.953-.397c1.657-.428 3.141-1.047 4.338-1.756a.04.04 0 0 1 .047 0c1.197.71 2.681 1.328 4.337 1.756q.996.257 1.953.397a.044.044 0 0 1 .038.044c.156 5.58.21 11.475-6.338 13.568a.04.04 0 0 1-.028 0c-6.547-2.093-6.494-7.987-6.337-13.568m4.147 9.734h4.547c.19 0 .343.15.343.337a.34.34 0 0 1-.344.335H9.892a.34.34 0 0 1-.344-.335.34.34 0 0 1 .344-.337" clip-rule="evenodd"/></g></g><defs><clipPath id="a"><path fill="#fff" d="M0 .005h24v24H0z"/></clipPath></defs></svg>