<svg xmlns="http://www.w3.org/2000/svg" width="24" height="24" fill="none"><g clip-path="url(#a)"><path fill="#1A1A1A" d="M10.453 6.974a.777.777 0 0 0-.775.775v7.74c0 .425.35.775.775.775s.775-.35.775-.775V7.75a.777.777 0 0 0-.775-.775M4.26 4.652a.774.774 0 0 0-.776.772v12.39a.774.774 0 0 0 1.547 0V5.424a.77.77 0 0 0-.772-.772"/><mask id="b" width="3" height="24" x="15" y="0" maskUnits="userSpaceOnUse" style="mask-type:luminance"><path fill="#fff" d="M15.2.005h2.4V23.23h-2.4z"/></mask><g mask="url(#b)"><path fill="#1A1A1A" d="M16.647.005a.777.777 0 0 0-.775.775v21.678c0 .425.35.775.775.775s.775-.35.775-.775V.78a.777.777 0 0 0-.775-.775"/></g><mask id="c" width="3" height="11" x="21" y="6" maskUnits="userSpaceOnUse" style="mask-type:luminance"><path fill="#fff" d="M21.6 6.405h2.012v10.4H21.6z"/></mask><g mask="url(#c)"><path fill="#1A1A1A" d="M22.84 6.974a.774.774 0 0 0-.771.775v7.74c0 .425.347.775.772.775s.775-.35.775-.775V7.75a.777.777 0 0 0-.775-.775"/></g><mask id="d" width="3" height="8" x="0" y="8" maskUnits="userSpaceOnUse" style="mask-type:luminance"><path fill="#fff" d="M.388 8.005H2.4v7.2H.388z"/></mask><g mask="url(#d)"><path fill="#1A1A1A" d="M1.163 8.52a.777.777 0 0 0-.775.776v4.646c0 .425.346.775.775.775.425 0 .771-.35.771-.775V9.296a.776.776 0 0 0-.771-.775"/></g><path fill="#1A1A1A" d="M13.55 4.652a.776.776 0 0 0-.775.772v12.39a.776.776 0 0 0 1.55 0V5.424a.776.776 0 0 0-.775-.772M7.356 2.327a.78.78 0 0 0-.775.775v17.034c0 .425.35.775.775.775s.772-.35.772-.775V3.102a.776.776 0 0 0-.772-.775M19.744 4.652a.776.776 0 0 0-.775.772v12.39a.776.776 0 0 0 1.55 0V5.424a.776.776 0 0 0-.775-.772"/></g><defs><clipPath id="a"><path fill="#fff" d="M0 .005h24v24H0z"/></clipPath></defs></svg>