<svg xmlns="http://www.w3.org/2000/svg" width="24" height="24" fill="none"><g clip-path="url(#a)"><path fill="#1A1A1A" d="M12.078 9.936a.392.392 0 0 0-.734 0l-1.172 3.094c-.072.2.028.422.231.5a.396.396 0 0 0 .503-.228l.2-.525h1.213l.2.525c.06.153.206.25.368.25a.385.385 0 0 0 .363-.522zm-.678 2.069.316-.831.315.831zM14.053 9.683a.39.39 0 0 0-.39.388v3.093a.39.39 0 0 0 .78 0v-3.093a.39.39 0 0 0-.39-.388"/><mask id="b" width="14" height="24" x="0" y="0" maskUnits="userSpaceOnUse" style="mask-type:luminance"><path fill="#fff" d="M.778.005H13.6V23.23H.778z"/></mask><g mask="url(#b)"><path fill="#1A1A1A" d="M12.49 18.195c-3.656 0-6.637-2.953-6.637-6.578s2.981-6.575 6.638-6.575a.39.39 0 0 0 .39-.387V.399a.387.387 0 0 0-.39-.385h-2.057a.39.39 0 0 0-.378.294l-.56 2.219c-.474.156-.937.34-1.374.562L6.144 1.911a.39.39 0 0 0-.475.06l-2.91 2.88a.384.384 0 0 0-.059.473l1.187 1.962a9 9 0 0 0-.565 1.36l-2.244.553a.39.39 0 0 0-.294.378v4.075c0 .178.12.334.294.375l2.244.553q.234.71.565 1.362L2.7 17.905a.384.384 0 0 0 .06.472l2.909 2.88c.125.126.322.15.475.057l1.978-1.175c.437.222.9.41 1.375.563l.56 2.218c.043.175.2.294.377.294h2.057c.215 0 .39-.172.39-.387v-4.254a.39.39 0 0 0-.39-.387zm-.387 4.253h-1.365l-.538-2.137a.4.4 0 0 0-.266-.278 9 9 0 0 1-1.64-.672.39.39 0 0 0-.385.01l-1.906 1.134-2.478-2.46 1.144-1.887a.39.39 0 0 0 .006-.381A8.5 8.5 0 0 1 4 14.152a.38.38 0 0 0-.281-.263l-2.16-.534V9.88l2.16-.535A.4.4 0 0 0 4 9.083a8.6 8.6 0 0 1 .675-1.625.39.39 0 0 0-.006-.381L3.525 5.189l2.478-2.456L7.91 3.864a.38.38 0 0 0 .385.01 8.6 8.6 0 0 1 1.64-.67.38.38 0 0 0 .266-.277l.538-2.141h1.365V4.28c-3.91.2-7.028 3.415-7.028 7.337s3.119 7.138 7.028 7.338z"/></g><mask id="c" width="17" height="15" x="7" y="4" maskUnits="userSpaceOnUse" style="mask-type:luminance"><path fill="#fff" d="M7.2 4.805h16.225v13.6H7.2z"/></mask><g mask="url(#c)"><path fill="#1A1A1A" d="M21.863 10.07c-.726 0-1.332.494-1.507 1.16h-3.96V9.683h1.563a.4.4 0 0 0 .288-.129l1.428-1.55a1.556 1.556 0 0 0 2.188-1.416c0-.855-.7-1.546-1.563-1.546s-1.562.69-1.562 1.547c0 .353.125.672.325.931l-1.275 1.39h-1.391v-.774a.39.39 0 0 0-.39-.388h-.782v-.772a.39.39 0 0 0-.781 0v.772H12.88v-.772a.39.39 0 0 0-.778 0v.772h-1.562v-.772a.39.39 0 0 0-.782 0v.772h-.78a.39.39 0 0 0-.391.388v.775h-.782a.387.387 0 0 0-.39.384.39.39 0 0 0 .39.388h.782v1.547h-.782a.39.39 0 0 0-.39.387.39.39 0 0 0 .39.387h.782v1.547h-.782a.39.39 0 0 0-.39.388.39.39 0 0 0 .39.387h.782v.772a.39.39 0 0 0 .39.388h.781v.775c0 .212.175.384.391.384s.39-.172.39-.384v-.775h1.563v.775c0 .212.175.384.388.384.215 0 .39-.172.39-.384v-.775h1.563v.775c0 .212.175.384.39.384s.391-.172.391-.384v-.775h.781a.39.39 0 0 0 .39-.388v-.772h1.392l1.274 1.388c-.2.26-.325.581-.325.931 0 .856.7 1.55 1.563 1.55s1.563-.694 1.563-1.55a1.556 1.556 0 0 0-2.188-1.415l-1.428-1.55a.4.4 0 0 0-.288-.129h-1.562v-1.546h3.96c.174.665.78 1.159 1.506 1.159.862 0 1.562-.69 1.562-1.547 0-.853-.7-1.547-1.562-1.547M20.3 5.814a.78.78 0 0 1 .781.775c0 .425-.35.772-.781.772a.78.78 0 0 1-.781-.772c0-.425.353-.775.781-.775m.781 10.831c0 .428-.35.775-.781.775a.78.78 0 0 1-.781-.775.78.78 0 0 1 .781-.772c.431 0 .781.347.781.772m-5.465-1.934H9.369V8.523h6.247zm6.247-2.319a.78.78 0 0 1-.782-.775.78.78 0 0 1 .782-.772.78.78 0 0 1 .78.772.78.78 0 0 1-.78.775"/></g></g><defs><clipPath id="a"><path fill="#fff" d="M0 .005h24v24H0z"/></clipPath></defs></svg>