<svg xmlns="http://www.w3.org/2000/svg" width="24" height="24" fill="none"><g clip-path="url(#a)"><mask id="b" width="13" height="13" x="1" y="4" maskUnits="userSpaceOnUse" style="mask-type:luminance"><path fill="#fff" d="M1.431 4.005H13.6v12.8H1.431z"/></mask><g mask="url(#b)"><path fill="#1A1A1A" d="M9.466 15.695H3.362c-.665 0-1.206-.54-1.206-1.206V6.24c0-.665.54-1.206 1.206-1.206h8.247c.666 0 1.21.54 1.21 1.206v1.822a.36.36 0 1 0 .722 0V6.239a1.93 1.93 0 0 0-1.932-1.928H3.362a1.93 1.93 0 0 0-1.93 1.928v8.25c0 1.063.865 1.928 1.93 1.928h6.104c.2 0 .359-.16.359-.36a.36.36 0 0 0-.36-.362"/></g><path fill="#1A1A1A" d="M7.872 3.693c.2 0 .362-.163.362-.363V1.946c0-.666.541-1.207 1.207-1.207h8.247c.665 0 1.209.541 1.209 1.207V8.06c0 .2.162.363.36.363.2 0 .362-.163.362-.363V1.946A1.93 1.93 0 0 0 17.688.018H9.44a1.934 1.934 0 0 0-1.932 1.928V3.33c0 .2.163.363.363.363"/><mask id="c" width="20" height="18" x="3" y="6" maskUnits="userSpaceOnUse" style="mask-type:luminance"><path fill="#fff" d="M3.2 6.405h19.134V23.23H3.2z"/></mask><g mask="url(#c)"><path fill="#1A1A1A" d="M20.631 9.036h-8.247a1.935 1.935 0 0 0-1.93 1.931v2.447a9.3 9.3 0 0 1-2.5-1.537c.424-.453.75-.897.99-1.288.572-.931.79-1.728.865-2.069h1.157c.2 0 .359-.162.359-.362a.36.36 0 0 0-.36-.363H7.832v-.98a.36.36 0 1 0-.722 0v.98H3.975a.363.363 0 0 0 0 .725h5.09c-.137.522-.546 1.697-1.643 2.863A8 8 0 0 1 6.3 9.986a.36.36 0 0 0-.497-.119.36.36 0 0 0-.119.497c.172.278.566.863 1.22 1.519-.688.606-1.582 1.181-2.745 1.628a.363.363 0 0 0-.209.466.37.37 0 0 0 .34.234q.062-.001.129-.025c1.29-.497 2.272-1.144 3.012-1.806a10 10 0 0 0 3.022 1.812v5.022c0 1.066.866 1.931 1.931 1.931h.675v1.713a.36.36 0 0 0 .6.272l2.263-1.985h4.71a1.93 1.93 0 0 0 1.93-1.93v-8.248a1.934 1.934 0 0 0-1.93-1.931m1.206 10.178c0 .666-.54 1.21-1.206 1.21h-4.847a.37.37 0 0 0-.237.087l-1.766 1.55v-1.278a.36.36 0 0 0-.36-.36h-1.037a1.21 1.21 0 0 1-1.206-1.209v-8.247c0-.665.54-1.206 1.206-1.206h8.247c.666 0 1.206.54 1.206 1.206z"/></g><path fill="#1A1A1A" d="M16.838 11.905a.361.361 0 0 0-.67 0L14.5 16.01v.003l-.806 1.981a.364.364 0 0 0 .334.5.37.37 0 0 0 .338-.228l.709-1.75h2.856l.71 1.75a.362.362 0 1 0 .672-.272zm-1.47 3.887 1.135-2.787 1.134 2.787zM16.219 7.927c.2 0 .362-.16.362-.36V3.995c0-.837-.681-1.518-1.522-1.518h-4.243a.36.36 0 1 0 0 .722h4.243c.441 0 .797.359.797.796v3.572c0 .2.163.36.363.36"/></g><defs><clipPath id="a"><path fill="#fff" d="M0 .005h24v24H0z"/></clipPath></defs></svg>