<svg xmlns="http://www.w3.org/2000/svg" width="19" height="24" fill="none"><path fill="#000" d="M9.138 3.24c1.631 0 3.106.66 4.176 1.728a5.89 5.89 0 0 1 1.729 4.175 5.88 5.88 0 0 1-1.59 4.031 6.7 6.7 0 0 0-.45-1.492c.481-.728.76-1.601.76-2.539a4.6 4.6 0 0 0-1.353-3.27A4.6 4.6 0 0 0 9.14 4.52a4.6 4.6 0 0 0-3.27 1.354 4.6 4.6 0 0 0-1.353 3.27c0 .974.301 1.878.817 2.624a6.6 6.6 0 0 0-.46 1.457 5.9 5.9 0 0 1-1.636-4.082c0-1.63.66-3.105 1.729-4.175a5.87 5.87 0 0 1 4.171-1.729m-3.124 9.837c.498-1.861 6.27-1.516 6.27-.069-.003 14.973-6.274 14.326-6.27.069m3.154-6.664a2.496 2.496 0 1 1 0 4.991 2.496 2.496 0 0 1 0-4.991M9.138.005A9.1 9.1 0 0 1 15.6 2.68a9.1 9.1 0 0 1 2.676 6.46 9.1 9.1 0 0 1-2.676 6.461 9.2 9.2 0 0 1-2.213 1.631 34 34 0 0 0 .168-1.594 8 8 0 0 0 1.139-.943 7.83 7.83 0 0 0 2.3-5.557c0-2.17-.878-4.134-2.3-5.556a7.84 7.84 0 0 0-5.555-2.299c-2.17 0-4.134.879-5.556 2.3a7.84 7.84 0 0 0-2.303 5.56c0 2.17.88 4.134 2.301 5.556q.537.537 1.166.963c.006.09.012.177.021.27q.068.684.157 1.322a9.2 9.2 0 0 1-2.25-1.65A9.12 9.12 0 0 1 0 9.142a9.12 9.12 0 0 1 2.676-6.462A9.12 9.12 0 0 1 9.138.005"/></svg>