<svg xmlns="http://www.w3.org/2000/svg" width="73" height="74" fill="none"><rect width="71" height="71" x="1.385" y="1" fill="url(#a)" stroke="#E4E7EC" rx="35.5"/><rect width="50.4" height="50.4" x="11.779" y="11.76" fill="#F46177" rx="25.2"/><g filter="url(#b)"><path fill="#09121F" d="M27.061 25.765A14.94 14.94 0 0 1 37.001 22c8.285 0 15 6.715 15 15a14.93 14.93 0 0 1-2.689 8.572L45.252 37h3.75a12 12 0 0 0-20.59-8.38l-1.35-2.854zm19.881 22.47A14.94 14.94 0 0 1 37.002 52c-8.285 0-15-6.715-15-15 0-3.187.994-6.142 2.69-8.573L28.751 37h-3.75a12 12 0 0 0 20.589 8.38l1.35 2.853zM31.752 40h8.25a.75.75 0 1 0 0-1.5h-6a3.75 3.75 0 1 1 0-7.5h1.5v-1.5h3V31h3.75v3h-8.25a.75.75 0 1 0 0 1.5h6a3.75 3.75 0 1 1 0 7.5h-1.5v1.5h-3V43h-3.75z"/><path fill="url(#c)" d="M27.061 25.765A14.94 14.94 0 0 1 37.001 22c8.285 0 15 6.715 15 15a14.93 14.93 0 0 1-2.689 8.572L45.252 37h3.75a12 12 0 0 0-20.59-8.38l-1.35-2.854zm19.881 22.47A14.94 14.94 0 0 1 37.002 52c-8.285 0-15-6.715-15-15 0-3.187.994-6.142 2.69-8.573L28.751 37h-3.75a12 12 0 0 0 20.589 8.38l1.35 2.853zM31.752 40h8.25a.75.75 0 1 0 0-1.5h-6a3.75 3.75 0 1 1 0-7.5h1.5v-1.5h3V31h3.75v3h-8.25a.75.75 0 1 0 0 1.5h6a3.75 3.75 0 1 1 0 7.5h-1.5v1.5h-3V43h-3.75z"/></g><defs><linearGradient id="a" x1="36.885" x2="36.885" y1=".5" y2="72.5" gradientUnits="userSpaceOnUse"><stop stop-color="#fff"/><stop offset="1" stop-color="#fff" stop-opacity=".8"/></linearGradient><linearGradient id="c" x1="37.002" x2="37.002" y1="22" y2="56.928" gradientUnits="userSpaceOnUse"><stop stop-color="#fff"/><stop offset="1" stop-color="#FEE6DF"/></linearGradient><filter id="b" width="62" height="62" x="6.002" y="12" color-interpolation-filters="sRGB" filterUnits="userSpaceOnUse"><feFlood flood-opacity="0" result="BackgroundImageFix"/><feColorMatrix in="SourceAlpha" result="hardAlpha" values="0 0 0 0 0 0 0 0 0 0 0 0 0 0 0 0 0 0 127 0"/><feOffset dy="6"/><feGaussianBlur stdDeviation="8"/><feComposite in2="hardAlpha" operator="out"/><feColorMatrix values="0 0 0 0 0.458824 0 0 0 0 0.0705882 0 0 0 0 0.27451 0 0 0 0.64 0"/><feBlend in2="BackgroundImageFix" result="effect1_dropShadow_104_85382"/><feBlend in="SourceGraphic" in2="effect1_dropShadow_104_85382" result="shape"/></filter></defs></svg>