<svg xmlns="http://www.w3.org/2000/svg" width="72" height="73" fill="none"><rect width="71" height="71" x=".5" y="1" fill="url(#a)" stroke="#E4E7EC" rx="35.5"/><rect width="50.4" height="50.4" x="10.999" y="12" fill="#F46177" rx="25.2"/><g filter="url(#b)"><path fill="url(#c)" d="M45.727 31.954A2.273 2.273 0 0 1 48 34.227v4.545a2.273 2.273 0 0 1-2.273 2.273h-1.206A9.093 9.093 0 0 1 35.5 49v-2.273a6.82 6.82 0 0 0 6.818-6.818V33.09a6.819 6.819 0 0 0-13.636 0v7.955h-3.41A2.273 2.273 0 0 1 23 38.772v-4.545a2.273 2.273 0 0 1 2.273-2.273h1.207a9.093 9.093 0 0 1 18.04 0zM30.682 40.8l1.204-1.928A6.8 6.8 0 0 0 35.5 39.91a6.8 6.8 0 0 0 3.614-1.036l1.204 1.928a9.05 9.05 0 0 1-4.818 1.38 9.05 9.05 0 0 1-4.818-1.38"/></g><defs><linearGradient id="a" x1="35.999" x2="35.999" y1=".5" y2="72.5" gradientUnits="userSpaceOnUse"><stop stop-color="#fff"/><stop offset="1" stop-color="#fff" stop-opacity=".8"/></linearGradient><linearGradient id="c" x1="35.5" x2="35.5" y1="24" y2="49" gradientUnits="userSpaceOnUse"><stop stop-color="#fff"/><stop offset="1" stop-color="#FEE6DF"/></linearGradient><filter id="b" width="57" height="57" x="7" y="14" color-interpolation-filters="sRGB" filterUnits="userSpaceOnUse"><feFlood flood-opacity="0" result="BackgroundImageFix"/><feColorMatrix in="SourceAlpha" result="hardAlpha" values="0 0 0 0 0 0 0 0 0 0 0 0 0 0 0 0 0 0 127 0"/><feOffset dy="6"/><feGaussianBlur stdDeviation="8"/><feColorMatrix values="0 0 0 0 0.458824 0 0 0 0 0.0705882 0 0 0 0 0.27451 0 0 0 0.64 0"/><feBlend in2="BackgroundImageFix" result="effect1_dropShadow_104_85314"/><feBlend in="SourceGraphic" in2="effect1_dropShadow_104_85314" result="shape"/></filter></defs></svg>