<svg xmlns="http://www.w3.org/2000/svg" width="24" height="24" fill="none"><g clip-path="url(#a)"><path fill="#1A1A1A" fill-rule="evenodd" d="M12.856 5.327a.34.34 0 0 1-.294-.166.355.355 0 0 1 .113-.484c.072-.047.134-.085.2-.119a.34.34 0 0 1 .469.14.35.35 0 0 1-.14.472c-.05.032-.104.057-.163.1a.32.32 0 0 1-.185.057M11.213 6.148c-.747 0-1.354.613-1.354 1.37a1.36 1.36 0 0 0 1.354 1.365 1.36 1.36 0 0 0 1.35-1.366 1.36 1.36 0 0 0-1.35-1.369m0 3.438c-1.125 0-2.047-.931-2.047-2.069 0-1.14.922-2.072 2.047-2.072s2.043.932 2.043 2.072c0 1.138-.915 2.069-2.043 2.069" clip-rule="evenodd"/><path fill="#1A1A1A" fill-rule="evenodd" d="M10.953 11.23h.49v-.728c0-.166.116-.312.282-.344.334-.062.653-.197.925-.378a.346.346 0 0 1 .438.04l.503.51.347-.353-.494-.5a.36.36 0 0 1-.04-.447c.196-.287.33-.61.405-.953a.35.35 0 0 1 .341-.275h.684v-.478h-.662a.35.35 0 0 1-.34-.288 2.7 2.7 0 0 0-.385-.98.35.35 0 0 1 .047-.438l.46-.47-.348-.352-.453.46a.34.34 0 0 1-.437.04 2.5 2.5 0 0 0-.97-.413.34.34 0 0 1-.277-.344v-.643h-.494v.643a.35.35 0 0 1-.278.344c-.347.069-.672.21-.969.413a.34.34 0 0 1-.437-.04l-.457-.467-.346.35.462.47c.113.118.134.3.047.434a2.7 2.7 0 0 0-.384.975.35.35 0 0 1-.341.284H7.6v.5h.688a.35.35 0 0 1 .34.275q.108.525.4.947a.354.354 0 0 1-.04.447l-.5.506.35.353.503-.516a.34.34 0 0 1 .437-.04q.416.281.925.384c.16.032.278.178.278.344zm.838.703h-1.175a.345.345 0 0 1-.344-.347v-.803a3 3 0 0 1-.647-.268l-.562.565a.34.34 0 0 1-.488 0l-.837-.847a.36.36 0 0 1 0-.494l.543-.553A3.6 3.6 0 0 1 8 8.518h-.766a.346.346 0 0 1-.343-.35V6.97a.36.36 0 0 1 .103-.25.35.35 0 0 1 .247-.103h.743q.1-.358.278-.697l-.518-.525a.353.353 0 0 1 0-.494l.831-.844a.345.345 0 0 1 .488 0l.509.516a3.4 3.4 0 0 1 .703-.303v-.719c0-.19.153-.347.344-.347H11.8c.094 0 .181.038.247.103a.36.36 0 0 1 .103.25v.719q.37.108.703.3l.503-.51a.345.345 0 0 1 .488 0l.837.85a.35.35 0 0 1 .103.247.36.36 0 0 1-.103.25l-.518.529c.118.221.212.462.278.7h.734c.19 0 .344.156.344.35v1.19a.343.343 0 0 1-.44.331h-.663a3.3 3.3 0 0 1-.288.679l.538.55a.353.353 0 0 1 0 .493l-.835.847a.34.34 0 0 1-.487 0l-.556-.56a3.2 3.2 0 0 1-.65.27v.79c0 .194-.157.35-.347.35M17.725 8.452a.345.345 0 0 1-.344-.347c0-.194.153-.35.344-.35.622 0 1.128-.513 1.128-1.144 0-.628-.506-1.144-1.128-1.144s-1.131.516-1.131 1.144c0 .194-.153.35-.344.35a.346.346 0 0 1-.344-.35c0-1.019.816-1.847 1.825-1.847 1.006 0 1.822.828 1.822 1.847-.006 1.01-.822 1.84-1.828 1.84" clip-rule="evenodd"/><path fill="#1A1A1A" fill-rule="evenodd" d="M17.725 10.046a.346.346 0 0 1-.344-.35V8.099c0-.19.153-.347.344-.347s.344.156.344.347v1.594a.347.347 0 0 1-.344.353M17.725 11.877a.346.346 0 0 1-.344-.35v-.722c0-.194.153-.35.344-.35s.344.156.344.35v.722c0 .194-.153.35-.344.35" clip-rule="evenodd"/><mask id="b" width="20" height="24" x="2" y="0" maskUnits="userSpaceOnUse" style="mask-type:luminance"><path fill="#fff" d="M2.71.005h18.58V23.23H2.71z"/></mask><g mask="url(#b)"><path fill="#1A1A1A" fill-rule="evenodd" d="M6.747 19.72c-.09 0-.175.004-.256.004a.64.64 0 0 1-.494-.19c-.185-.195-.39-.635-.313-1.638a.38.38 0 0 0-.112-.294l-.581-.525c-.041-.035-.041-.103-.007-.144 0 0 0-.006.007-.006.003-.006.015-.01.018-.016l.007-.006.025-.016c.006-.006.009-.006.009-.009.237-.156.397-.397.453-.678a1.05 1.05 0 0 0-.344-1.019l-.006-.006-1.581-1.375a.24.24 0 0 1-.047-.294l1.272-2.178c.175-.262.247-.584.194-.89-.21-1.31-.582-5.779 3.365-8.323a8.26 8.26 0 0 1 5.019-1.28c1.925.13 4.519.852 5.938 3.574.103.194.206.385.318.578.36.603 1.444 2.857.369 6.497-.072.253-.147.516-.206.785-.082.38-.46 1.525-2.157 3.953a1.6 1.6 0 0 0-.287.912l.019 5.357-7.616.028-.012-2.37a.343.343 0 0 0-.335-.346l-2.547-.09c-.034.006-.075.006-.112.006m2.662 3.51a.345.345 0 0 1-.343-.347l-.013-2.381-2.212-.078c-.11-.006-.216 0-.313.003a1.32 1.32 0 0 1-1.025-.406c-.387-.404-.56-1.082-.512-2.007l-.457-.412a.81.81 0 0 1-.068-1.128c.043-.047.084-.078.112-.103l.016-.01c.018-.012.028-.022.043-.031l.041-.028a.39.39 0 0 0 .153-.228.37.37 0 0 0-.05-.275s0-.006-.006-.006c-.01-.016-.038-.047-.066-.079l-1.578-1.372a.93.93 0 0 1-.19-1.18l1.275-2.191q.005-.013.015-.025a.55.55 0 0 0 .088-.382C4.087 9.14 3.687 4.308 7.984 1.53A8.98 8.98 0 0 1 13.425.14c2.103.14 4.938.943 6.503 3.943.103.188.197.369.303.547.222.375.622 1.175.819 2.366.24 1.453.113 3.034-.381 4.687-.072.25-.14.494-.197.744-.116.522-.566 1.76-2.266 4.21a.9.9 0 0 0-.16.502l.023 5.707c0 .193-.153.35-.344.356z" clip-rule="evenodd"/></g></g><defs><clipPath id="a"><path fill="#fff" d="M0 .005h24v24H0z"/></clipPath></defs></svg>